PathFileType	4	(X/Y/Z)	..\data\2014029\dynamic\2014029_C4_05.trc
DataRate	CameraRate	NumFrames	NumMarkers	Units	OrigDataRate	OrigDataStartFrame	OrigNumFrames
100.000000	100.000000	4	52	mm	100.000000	145	194
Frame#	Time	L_IAS			L_IPS			R_IPS			R_IAS			L_FTC			L_FLE			L_FME			L_FAX			L_TTC			L_FAL			L_TAM			L_FCC			L_FM1			L_FM2			L_FM5			R_FTC			R_FLE			R_FME			R_FAX			R_TTC			R_FAL			R_TAM			R_FCC			R_FM1			R_FM2			R_FM5			CV7			TV10			SXS			SJN			L_SIA			L_SRS			L_SAA			L_SAE			L_HLE			L_HME			L_UOA			L_RSP			L_UHE			L_HM2			L_HM5			R_SIA			R_SRS			R_SAA			R_SAE			R_HLE			R_HME			R_UOA			R_RSP			R_UHE			R_HM2			R_HM5			
		X1	Y1	Z1	X2	Y2	Z2	X3	Y3	Z3	X4	Y4	Z4	X5	Y5	Z5	X6	Y6	Z6	X7	Y7	Z7	X8	Y8	Z8	X9	Y9	Z9	X10	Y10	Z10	X11	Y11	Z11	X12	Y12	Z12	X13	Y13	Z13	X14	Y14	Z14	X15	Y15	Z15	X16	Y16	Z16	X17	Y17	Z17	X18	Y18	Z18	X19	Y19	Z19	X20	Y20	Z20	X21	Y21	Z21	X22	Y22	Z22	X23	Y23	Z23	X24	Y24	Z24	X25	Y25	Z25	X26	Y26	Z26	X27	Y27	Z27	X28	Y28	Z28	X29	Y29	Z29	X30	Y30	Z30	X31	Y31	Z31	X32	Y32	Z32	X33	Y33	Z33	X34	Y34	Z34	X35	Y35	Z35	X36	Y36	Z36	X37	Y37	Z37	X38	Y38	Z38	X39	Y39	Z39	X40	Y40	Z40	X41	Y41	Z41	X42	Y42	Z42	X43	Y43	Z43	X44	Y44	Z44	X45	Y45	Z45	X46	Y46	Z46	X47	Y47	Z47	X48	Y48	Z48	X49	Y49	Z49	X50	Y50	Z50	X51	Y51	Z51	X52	Y52	Z52	

146	1.45	1422.57177734375	1059.818969726563	-354.6575317382813	1208.738891601563	1048.719482421875	-303.1462402343751	1200.023071289063	1045.090087890625	-202.1790618896485	1392.759765625	1054.717407226563	-106.3126983642578	1357.904418945313	966.659606933594	-433.0567321777345	1430.175415039063	518.2760620117189	-388.8308105468751	1419.546508789063	496.7814331054689	-263.5376586914063	1425.672973632813	449.661346435547	-396.5841369628907	1483.73095703125	455.2889099121095	-325.0072021484376	1449.686401367188	77.42276000976564	-357.1042175292969	1477.481201171875	94.86455535888673	-256.5681762695313	1403.317260742188	17.13331985473633	-310.1019897460938	1624.774291992188	25.3675708770752	-276.4064331054688	1615.60205078125	40.98321151733399	-326.3254699707032	1562.620727539063	17.26936531066895	-384.2986755371095	1271.855102539063	939.3564453125002	-57.6852264404297	1277.645141601563	502.4308471679689	-72.33474731445314	1292.274780273438	474.6121826171876	-199.0946197509766	1224.301147460938	464.4120178222657	-70.62757873535158	1286.948852539063	414.1812133789064	-123.6677932739258	940.300964355469	235.0056304931641	-131.8327941894532	976.7741699218752	213.1762390136719	-225.0343017578126	876.7539062500002	247.2561645507813	-189.05712890625	957.0305175781252	58.1095314025879	-217.4140167236329	963.1499023437502	70.38855743408205	-161.8157501220703	929.8443603515627	80.85926055908205	-114.3246765136719	1275.123413085938	1584.78857421875	-283.1662597656251	1191.280395507813	1319.136108398438	-257.1524963378907	1447.263305664063	1296.356811523438	-254.0520172119141	1404.496459960938	1488.23486328125	-272.7171936035157	1165.596923828125	1347.547729492188	-351.6572265625001	1209.3056640625	1500.667236328125	-373.5127563476563	1252.124389648438	1488.930908203125	-482.4993286132814	1307.827880859375	1490.6396484375	-495.0210571289064	1238.360961914063	1140.263549804688	-552.9669189453126	1230.474731445313	1135.798583984375	-456.0559997558595	1207.1328125	1130.19873046875	-499.4179077148439	1313.153442382813	858.5720214843752	-544.4932861328126	1235.174438476563	880.1557617187502	-584.3201293945314	1326.89599609375	775.4014282226565	-542.8423461914064	1226.369384765625	791.7195434570315	-594.0682983398439	1165.082397460938	1368.38134765625	-166.5004577636719	1208.469116210938	1515.021240234375	-175.9376373291016	1254.928344726563	1526.019653320313	-68.58867645263673	1307.126953125	1532.497192382813	-56.08090972900392	1255.33447265625	1185.60986328125	31.59395027160645	1244.524169921875	1164.709228515625	-59.0188331604004	1226.239135742188	1163.676513671875	-1.335744738578797	1395.11865234375	928.0742187500002	30.07402038574219	1312.374389648438	929.4344482421877	70.02947235107423	1426.833618164063	841.2537841796877	33.20685577392579	1317.32470703125	840.163513183594	79.91483306884767	
147	1.46	1433.716430664063	1060.880126953125	-355.7425842285157	1219.987915039063	1049.941162109375	-304.6190795898438	1210.742309570313	1045.885009765625	-203.7510833740235	1403.40234375	1056.005126953125	-107.501579284668	1368.60693359375	967.702575683594	-434.2796020507814	1434.183227539063	518.2931518554689	-389.8921508789064	1423.24169921875	496.9921264648439	-264.5433959960938	1428.765258789063	449.7367553710939	-397.5665283203126	1487.108642578125	454.8223266601564	-326.0775146484376	1449.530395507813	77.29656982421876	-357.0728759765626	1477.503295898438	94.81282806396486	-256.5777587890626	1403.161254882813	17.03853797912598	-310.1284179687501	1624.724243164063	24.98781394958497	-276.2926940917969	1615.762329101563	40.76981353759766	-326.6409912109376	1562.509033203125	16.98601531982422	-384.5104980468751	1283.480834960938	939.9486083984377	-60.10851287841798	1302.896484375	501.8936767578126	-72.2517776489258	1317.813720703125	474.5327758789064	-199.0758056640626	1249.850830078125	464.861297607422	-70.09151458740236	1311.397583007813	413.9993896484376	-124.1242980957032	961.1234130859377	241.7648925781251	-131.0873565673828	996.8328857421877	219.5094146728516	-224.4515991210938	897.2601318359377	255.3195037841797	-188.0825805664063	974.4652099609377	64.72552490234376	-216.0153350830079	981.2507324218752	76.58376312255861	-160.7177734375	948.679382324219	88.29238128662111	-113.3526611328125	1286.038208007813	1586.020385742188	-284.1937255859376	1202.151733398438	1320.324096679688	-258.7224121093751	1457.722290039063	1297.546020507813	-254.3356628417969	1415.385986328125	1489.524536132813	-273.1754455566407	1177.08154296875	1348.805419921875	-353.8456726074219	1220.772705078125	1501.827392578125	-375.0624694824219	1264.455688476563	1490.259887695313	-484.0560302734376	1320.30859375	1491.92919921875	-495.8988342285157	1255.265747070313	1140.835693359375	-555.6131591796876	1245.973266601563	1136.032104492188	-458.8336181640626	1223.524291992188	1130.04052734375	-502.4578552246095	1335.502807617188	860.6880493164065	-547.0568847656251	1257.337890625	880.5706787109377	-587.3541259765626	1350.958862304688	777.854919433594	-545.5394897460939	1250.647094726563	792.028503417969	-597.3753051757814	1175.728393554688	1369.658447265625	-167.9033203125	1219.0302734375	1516.236450195313	-177.2447052001953	1265.03857421875	1527.268310546875	-69.7047805786133	1317.145385742188	1533.801391601563	-57.00779342651369	1264.282836914063	1187.060424804688	30.38842773437501	1253.532592773438	1166.3818359375	-60.22543334960939	1235.17431640625	1165.332763671875	-2.642672300338746	1401.80810546875	928.2193603515627	28.6203727722168	1319.178466796875	930.6693115234377	69.11119842529298	1431.762451171875	840.5454101562502	30.56063842773438	1322.718139648438	841.3462524414065	78.62788391113283	
148	1.47	1444.66943359375	1061.738037109375	-356.8494567871094	1231.0244140625	1050.976928710938	-306.0671081542969	1221.345458984375	1046.562744140625	-205.2937622070313	1413.954223632813	1057.251953125	-108.6820068359375	1379.102294921875	968.5019531250002	-435.4454040527345	1437.931762695313	518.2280883789064	-390.922576904297	1426.761840820313	497.0997619628907	-265.5346374511719	1431.615844726563	449.7374877929689	-398.5015869140626	1490.270751953125	454.2994689941407	-327.1138305664063	1449.422607421875	77.16847991943361	-356.9906616210938	1477.5556640625	94.72867584228517	-256.5466613769532	1403.01171875	16.97748184204102	-310.1311645507813	1624.689331054688	24.50445365905762	-276.1579589843751	1615.928588867188	40.47273635864259	-326.9083251953126	1562.41357421875	16.66339111328125	-384.678924560547	1295.046142578125	940.531921386719	-62.53144454956056	1328.0302734375	501.8595275878907	-72.34319305419923	1342.958129882813	475.0798645019532	-199.2475891113282	1275.237060546875	465.6911010742189	-69.75875091552736	1335.842041015625	414.261932373047	-124.7361373901367	982.7798461914065	247.7948913574219	-130.296142578125	1017.665649414063	225.3189544677735	-223.8541259765626	918.3482666015627	261.9925842285157	-186.8960571289063	994.3858642578127	70.85253143310548	-214.3594055175782	1001.761901855469	82.5966033935547	-159.2907257080078	969.8310546875002	95.20137023925783	-112.0036087036133	1296.884765625	1587.096069335938	-285.0889892578126	1212.884887695313	1321.379516601563	-260.3144836425782	1468.015869140625	1298.524536132813	-254.5764923095704	1426.170776367188	1490.610961914063	-273.5163269042969	1188.371215820313	1349.975708007813	-355.9710388183594	1232.142700195313	1502.891235351563	-376.5335693359376	1276.711547851563	1491.450439453125	-485.5362854003907	1332.728149414063	1493.023681640625	-496.6705627441407	1272.292236328125	1141.26806640625	-558.2734985351564	1261.376098632813	1136.0693359375	-461.6560974121095	1240.009033203125	1129.7021484375	-505.5532226562501	1358.085083007813	862.8245849609377	-549.4808349609376	1279.789428710938	880.930114746094	-590.3365478515626	1375.403564453125	780.4020996093752	-548.1716308593751	1275.309936523438	792.3482666015627	-600.6725463867189	1186.2724609375	1370.601806640625	-169.4155883789063	1229.458740234375	1517.210815429688	-178.5016174316407	1274.932250976563	1528.21142578125	-70.73538970947267	1326.942504882813	1534.779907226563	-57.80682373046876	1273.072631835938	1188.18505859375	29.38362503051759	1262.334716796875	1167.642456054688	-61.19823074340822	1243.957397460938	1166.62646484375	-3.714701890945435	1408.682739257813	928.287048339844	27.27858352661134	1326.155639648438	931.635681152344	68.32091522216798	1437.022338867188	839.8623657226565	28.05607414245606	1328.50341796875	842.269958496094	77.42036437988283	
149	1.48	1455.43994140625	1062.426879882813	-357.9949035644532	1241.864013671875	1051.850341796875	-307.4488830566407	1231.866943359375	1047.147338867188	-206.7546539306641	1424.463500976563	1058.469116210938	-109.8678131103516	1389.38525390625	969.0870361328127	-436.5504455566407	1441.479614257813	518.1080932617189	-391.9176025390626	1430.142456054688	497.1269531250001	-266.5006713867188	1434.280517578125	449.6893615722657	-399.3841857910157	1493.261596679688	453.7371520996095	-328.1085510253907	1449.369750976563	77.05059814453126	-356.8634338378907	1477.63330078125	94.62871551513673	-256.4776306152344	1402.882202148438	16.95530891418457	-310.1183776855469	1624.67041015625	23.94635200500489	-276.0045166015626	1616.107666015625	40.11605453491212	-327.1345214843751	1562.337768554688	16.32758522033692	-384.8150329589845	1306.622680664063	941.121765136719	-64.84038543701173	1352.92724609375	502.3648986816407	-72.59485626220705	1367.634765625	476.2291564941407	-199.5661163330079	1300.339721679688	466.9113769531251	-69.63560485839845	1360.231201171875	414.9898681640626	-125.4296569824219	1005.211486816406	252.9355621337891	-129.4893951416016	1039.287231445313	230.4071502685547	-223.2470245361329	939.9962158203127	267.1308593750001	-185.5900421142578	1016.695190429688	76.24743652343751	-212.5036926269532	1024.5458984375	88.17849731445314	-157.5975799560547	993.1331176757815	101.3350677490235	-110.3690795898438	1307.659545898438	1588.033203125	-285.8675231933594	1223.49462890625	1322.3125	-261.9072875976563	1478.189208984375	1299.32763671875	-254.7959442138672	1436.85400390625	1491.520751953125	-273.7571411132813	1199.473510742188	1351.069213867188	-358.0194396972657	1243.409790039063	1503.874267578125	-377.9293212890626	1288.8759765625	1492.516967773438	-486.9381408691407	1345.0654296875	1493.946655273438	-497.3436584472657	1289.428466796875	1141.596313476563	-560.9387817382814	1276.697509765625	1135.941040039063	-464.5120544433595	1256.5732421875	1129.219970703125	-508.6902465820314	1380.858764648438	865.0126953125002	-551.7482910156251	1302.503173828125	881.2852172851565	-593.2554321289064	1400.181640625	783.0799560546877	-550.7231445312501	1300.30859375	792.7359619140627	-603.9447021484376	1196.722290039063	1371.235595703125	-171.0293121337891	1239.759887695313	1517.963989257813	-179.7157592773438	1284.620483398438	1528.878784179688	-71.69901275634767	1336.535034179688	1535.464111328125	-58.49116134643556	1281.716674804688	1189.013671875	28.54210281372071	1270.962158203125	1168.523315429688	-61.98246002197267	1252.603515625	1167.592651367188	-4.595028877258302	1415.733276367188	928.2832031250002	26.05504989624024	1333.283325195313	932.3440551757815	67.63436889648439	1442.642211914063	839.2187500000002	25.75790977478028	1334.67236328125	842.9367675781252	76.29367065429689	
